<?xml version="1.0" encoding="utf-8"?><svg version="1.1" id="Layer_1" xmlns="http://www.w3.org/2000/svg" xmlns:xlink="http://www.w3.org/1999/xlink" x="0px" y="0px" viewBox="0 0 122.88 115.08" style="enable-background:new 0 0 122.88 115.08" xml:space="preserve"><style type="text/css"><![CDATA[
	.st0{fill:#FF4141;}
	.st1{fill:#393939;}
]]></style><g><path class="st0" d="M39.88,49.14v44.26H25.47V49.14H39.88L39.88,49.14L39.88,49.14z M117.18,81.98v11.41h-14.41V81.98H117.18 L117.18,81.98L117.18,81.98z M91.41,69.98v23.4H77v-23.4H91.41L91.41,69.98L91.41,69.98z M65.65,61.72v31.66H51.24V61.72H65.65 L65.65,61.72L65.65,61.72z"/><path class="st1" d="M12.71,14.71v87.65h110.05v12.72H6.36c-3.51,0-6.36-2.85-6.36-6.36V14.71H12.71L12.71,14.71L12.71,14.71z M121.92,43.83c1.56,2.04,1.17,4.96-0.87,6.52l-16.89,12.87c-2.04,1.56-4.96,1.17-6.52-0.87s-1.17-4.96,0.87-6.52l6.66-5.07 c-14.7-1.44-28.81-5.57-41.21-11.53C47.72,31.86,33.77,20.09,25.93,7.03c-1.32-2.2-0.6-5.06,1.6-6.37c2.2-1.32,5.06-0.6,6.37,1.6 c6.91,11.51,19.43,22,34.93,29.45c10.94,5.26,23.33,8.98,36.25,10.47l-5.69-4.6c-2-1.61-2.32-4.54-0.71-6.54 c1.61-2,4.54-2.32,6.54-0.71L121.92,43.83L121.92,43.83L121.92,43.83L121.92,43.83z"/></g></svg>