<svg width="960" height="600" version="1.1" xmlns="http://www.w3.org/2000/svg"><g></g><g transform="translate(480,300)"><text text-anchor="middle" transform="translate(65,-146)rotate(-8.99999960099319)scale(1.0000000211745685,1.0000000211745685)" style="font-size: 85px; font-family: Impact; fill: rgb(206, 219, 156);">data</text><text text-anchor="middle" transform="translate(-135,97)rotate(8.00000038608561)skewX(0)scale(0.9999999836615361,0.9999999836615361)" style="font-size: 68px; font-family: Impact; fill: rgb(107, 110, 207);">cloud</text><text text-anchor="middle" transform="translate(116,61)rotate(-43.00000056046859)skewX(0)scale(1.00000000712806,1.00000000712806)" style="font-size: 10px; font-family: Impact; fill: rgb(231, 150, 156);">hack</text><text text-anchor="middle" transform="translate(252,50)rotate(-26.000000034001005)skewX(3.1805546498063074e-15)scale(1.0000000099533612,1.0000000099533612)" style="font-size: 74px; font-family: Impact; fill: rgb(107, 110, 207);">attack</text><text text-anchor="middle" transform="translate(-79,-144)rotate(-43.00000056046859)scale(1.00000000712806,1.00000000712806)" style="font-size: 93px; font-family: Impact; fill: rgb(156, 158, 222);">security</text><text text-anchor="middle" transform="translate(-243,-70)rotate(-59.99999955470795)scale(0.9999999865388264,0.9999999865388264)" style="font-size: 80px; font-family: Impact; fill: rgb(99, 121, 57);">threat</text><text text-anchor="middle" transform="translate(126,173)rotate(-26.000000034001005)skewX(3.1805546498063074e-15)scale(1.0000000099533612,1.0000000099533612)" style="font-size: 60px; font-family: Impact; fill: rgb(140, 162, 82);">vulnerability</text><text text-anchor="middle" transform="translate(153,28)rotate(-26.000000034001005)skewX(3.1805546498063074e-15)scale(1.0000000099533612,1.0000000099533612)" style="font-size: 93px; font-family: Impact; fill: rgb(181, 207, 107);">breach</text><text text-anchor="middle" transform="translate(-318,196)rotate(8.00000038608561)scale(0.9999999836615361,0.9999999836615361)" style="font-size: 49px; font-family: Impact; fill: rgb(206, 219, 156);">compromise</text><text text-anchor="middle" transform="translate(-83,41)rotate(-8.999999600993188)skewX(0)scale(1.0000000211745685,1.0000000211745685)" style="font-size: 49px; font-family: Impact; fill: rgb(140, 109, 49);">cyber</text><text text-anchor="middle" transform="translate(24,-19)rotate(-59.99999955470795)skewX(0)scale(0.9999999865388264,0.9999999865388264)" style="font-size: 35px; font-family: Impact; fill: rgb(189, 158, 57);">DDoS</text><text text-anchor="middle" transform="translate(-14,74)rotate(-26.000000034001005)skewX(3.1805546498063074e-15)scale(1.0000000099533612,1.0000000099533612)" style="font-size: 35px; font-family: Impact; fill: rgb(231, 186, 82);">risk</text><text text-anchor="middle" transform="translate(-54,-124)rotate(-43.00000056046859)scale(1.00000000712806,1.00000000712806)" style="font-size: 35px; font-family: Impact; fill: rgb(231, 203, 148);">supply</text><text text-anchor="middle" transform="translate(85,108)rotate(8.000000386085613)scale(0.9999999836615361,0.9999999836615361)" style="font-size: 35px; font-family: Impact; fill: rgb(132, 60, 57);">chain</text><text text-anchor="middle" transform="translate(-166,146)rotate(-43.00000056046859)scale(1.00000000712806,1.00000000712806)" style="font-size: 35px; font-family: Impact; fill: rgb(173, 73, 74);">email</text><text text-anchor="middle" transform="translate(-246,134)rotate(-8.99999960099319)scale(1.0000000211745685,1.0000000211745685)" style="font-size: 35px; font-family: Impact; fill: rgb(214, 97, 107);">quantum</text><text text-anchor="middle" transform="translate(-175,31)rotate(-26.000000034001005)skewX(3.1805546498063074e-15)scale(1.0000000099533612,1.0000000099533612)" style="font-size: 100px; font-family: Impact; fill: rgb(231, 150, 156);">ransomware</text><text text-anchor="middle" transform="translate(218,-92)rotate(-8.99999960099319)scale(1.0000000211745685,1.0000000211745685)" style="font-size: 89px; font-family: Impact; fill: rgb(123, 65, 115);">phishing</text><text text-anchor="middle" transform="translate(-59,160)rotate(-26.000000034001005)skewX(3.1805546498063074e-15)scale(1.0000000099533612,1.0000000099533612)" style="font-size: 60px; font-family: Impact; fill: rgb(165, 81, 148);">malware</text><text text-anchor="middle" transform="translate(-228,-185)rotate(8.000000386085611)scale(0.9999999836615361,0.9999999836615361)" style="font-size: 60px; font-family: Impact; fill: rgb(206, 109, 189);">insider</text><text text-anchor="middle" transform="translate(83,-45)rotate(-59.999999554707955)scale(0.9999999865388264,0.9999999865388264)" style="font-size: 10px; font-family: Impact; fill: rgb(222, 158, 214);">zeroday</text><text text-anchor="middle" transform="translate(332,66)rotate(-43.00000056046859)scale(1.00000000712806,1.00000000712806)" style="font-size: 49px; font-family: Impact; fill: rgb(57, 59, 121);">social</text><text text-anchor="middle" transform="translate(174,-235)rotate(-8.999999600993192)scale(1.0000000211745685,1.0000000211745685)" style="font-size: 49px; font-family: Impact; fill: rgb(82, 84, 163);">engineering</text><text text-anchor="middle" transform="translate(-289,-127)rotate(-8.999999600993188)scale(1.0000000211745685,1.0000000211745685)" style="font-size: 10px; font-family: Impact; fill: rgb(107, 110, 207);">password</text><text text-anchor="middle" transform="translate(90,80)rotate(-26.000000034001005)skewX(3.1805546498063074e-15)scale(1.0000000099533612,1.0000000099533612)" style="font-size: 10px; font-family: Impact; fill: rgb(156, 158, 222);">IoT</text><text text-anchor="middle" transform="translate(-8,27)rotate(-59.99999955470795)scale(0.9999999865388264,0.9999999865388264)" style="font-size: 10px; font-family: Impact; fill: rgb(99, 121, 57);">mobile</text><text text-anchor="middle" transform="translate(148,-67)rotate(-26.000000034001005)skewX(3.1805546498063074e-15)scale(1.0000000099533612,1.0000000099533612)" style="font-size: 10px; font-family: Impact; fill: rgb(140, 162, 82);">device</text><text text-anchor="middle" transform="translate(-197,-124)rotate(-59.99999955470795)scale(0.9999999865388264,0.9999999865388264)" style="font-size: 10px; font-family: Impact; fill: rgb(181, 207, 107);">thirdparty</text><text text-anchor="middle" transform="translate(94,-22)rotate(-8.999999600993188)skewX(0)scale(1.0000000211745685,1.0000000211745685)" style="font-size: 10px; font-family: Impact; fill: rgb(206, 219, 156);">compliance</text><text text-anchor="middle" transform="translate(118,-48)rotate(8.00000038608561)scale(0.9999999836615361,0.9999999836615361)" style="font-size: 10px; font-family: Impact; fill: rgb(140, 109, 49);">violation</text><text text-anchor="middle" transform="translate(37,-2)rotate(-26.000000034001005)skewX(3.1805546498063074e-15)scale(1.0000000099533612,1.0000000099533612)" style="font-size: 10px; font-family: Impact; fill: rgb(189, 158, 57);">advanced</text><text text-anchor="middle" transform="translate(296,-45)rotate(-8.999999600993188)scale(1.0000000211745685,1.0000000211745685)" style="font-size: 10px; font-family: Impact; fill: rgb(231, 186, 82);">persistent</text><text text-anchor="middle" transform="translate(68,127)rotate(8.00000038608561)scale(0.9999999836615361,0.9999999836615361)" style="font-size: 10px; font-family: Impact; fill: rgb(231, 203, 148);">cryptojacking</text><text text-anchor="middle" transform="translate(176,-54)rotate(-43.00000056046859)scale(1.00000000712806,1.00000000712806)" style="font-size: 10px; font-family: Impact; fill: rgb(132, 60, 57);">online</text><text text-anchor="middle" transform="translate(-174,-154)rotate(-8.99999960099319)scale(1.0000000211745685,1.0000000211745685)" style="font-size: 10px; font-family: Impact; fill: rgb(173, 73, 74);">fraud</text><text text-anchor="middle" transform="translate(161,-172)rotate(-26.000000034001005)skewX(3.1805546498063074e-15)scale(1.0000000099533612,1.0000000099533612)" style="font-size: 10px; font-family: Impact; fill: rgb(214, 97, 107);">website</text><text text-anchor="middle" transform="translate(-117,127)rotate(-26.000000034001005)skewX(3.1805546498063074e-15)scale(1.0000000099533612,1.0000000099533612)" style="font-size: 10px; font-family: Impact; fill: rgb(231, 150, 156);">defacement</text><text text-anchor="middle" transform="translate(137,60)rotate(-59.99999955470795)scale(0.9999999865388264,0.9999999865388264)" style="font-size: 10px; font-family: Impact; fill: rgb(123, 65, 115);">nationstate</text><text text-anchor="middle" transform="translate(7,153)rotate(-59.99999955470795)skewX(0)scale(0.9999999865388264,0.9999999865388264)" style="font-size: 10px; font-family: Impact; fill: rgb(165, 81, 148);">AIpowered</text><text text-anchor="middle" transform="translate(-63,-3)rotate(8.000000386085611)scale(0.9999999836615361,0.9999999836615361)" style="font-size: 10px; font-family: Impact; fill: rgb(206, 109, 189);">remote</text><text text-anchor="middle" transform="translate(174,-154)rotate(-8.999999600993188)skewX(0)scale(1.0000000211745685,1.0000000211745685)" style="font-size: 10px; font-family: Impact; fill: rgb(222, 158, 214);">work</text><text text-anchor="middle" transform="translate(-125,-86)rotate(-59.99999955470795)skewX(0)scale(0.9999999865388264,0.9999999865388264)" style="font-size: 10px; font-family: Impact; fill: rgb(57, 59, 121);">shadow</text><text text-anchor="middle" transform="translate(-228,-43)rotate(8.00000038608561)scale(0.9999999836615361,0.9999999836615361)" style="font-size: 10px; font-family: Impact; fill: rgb(82, 84, 163);">Internet</text><text text-anchor="middle" transform="translate(-15,158)rotate(-59.999999554707955)scale(0.9999999865388264,0.9999999865388264)" style="font-size: 10px; font-family: Impact; fill: rgb(107, 110, 207);">Things</text><text text-anchor="middle" transform="translate(55,146)rotate(-8.999999600993188)scale(1.0000000211745685,1.0000000211745685)" style="font-size: 10px; font-family: Impact; fill: rgb(156, 158, 222);">cryptocurrency</text><text text-anchor="middle" transform="translate(-227,68)rotate(-8.99999960099319)scale(1.0000000211745685,1.0000000211745685)" style="font-size: 10px; font-family: Impact; fill: rgb(99, 121, 57);">theft</text><text text-anchor="middle" transform="translate(-10,-30)rotate(-43.00000056046859)scale(1.00000000712806,1.00000000712806)" style="font-size: 10px; font-family: Impact; fill: rgb(140, 162, 82);">biometric</text><text text-anchor="middle" transform="translate(224,148)rotate(-8.999999600993185)scale(1.0000000211745685,1.0000000211745685)" style="font-size: 10px; font-family: Impact; fill: rgb(181, 207, 107);">industrial</text><text text-anchor="middle" transform="translate(56,-130)rotate(-8.99999960099319)scale(1.0000000211745685,1.0000000211745685)" style="font-size: 10px; font-family: Impact; fill: rgb(206, 219, 156);">control</text><text text-anchor="middle" transform="translate(53,-41)rotate(-59.99999955470795)skewX(0)scale(0.9999999865388264,0.9999999865388264)" style="font-size: 10px; font-family: Impact; fill: rgb(140, 109, 49);">system</text><text text-anchor="middle" transform="translate(-233,-25)rotate(-8.999999600993192)scale(1.0000000211745685,1.0000000211745685)" style="font-size: 10px; font-family: Impact; fill: rgb(189, 158, 57);">software</text><text text-anchor="middle" transform="translate(201,-165)rotate(-43.00000056046859)scale(1.00000000712806,1.00000000712806)" style="font-size: 10px; font-family: Impact; fill: rgb(231, 186, 82);">web</text><text text-anchor="middle" transform="translate(284,56)rotate(-43.00000056046859)scale(1.00000000712806,1.00000000712806)" style="font-size: 10px; font-family: Impact; fill: rgb(231, 203, 148);">application</text><text text-anchor="middle" transform="translate(294,-67)rotate(-26.000000034001005)skewX(3.1805546498063074e-15)scale(1.0000000099533612,1.0000000099533612)" style="font-size: 10px; font-family: Impact; fill: rgb(132, 60, 57);">distributed</text><text text-anchor="middle" transform="translate(-329,-56)rotate(-43.00000056046859)scale(1.00000000712806,1.00000000712806)" style="font-size: 10px; font-family: Impact; fill: rgb(173, 73, 74);">denialofservice</text><text text-anchor="middle" transform="translate(199,163)rotate(-8.999999600993192)scale(1.0000000211745685,1.0000000211745685)" style="font-size: 10px; font-family: Impact; fill: rgb(214, 97, 107);">business</text><text text-anchor="middle" transform="translate(-151,-59)rotate(-43.00000056046859)skewX(0)scale(1.00000000712806,1.00000000712806)" style="font-size: 10px; font-family: Impact; fill: rgb(231, 150, 156);">BEC</text><text text-anchor="middle" transform="translate(143,178)rotate(-8.999999600993185)scale(1.0000000211745685,1.0000000211745685)" style="font-size: 10px; font-family: Impact; fill: rgb(123, 65, 115);">machine</text><text text-anchor="middle" transform="translate(351,-59)rotate(-43.00000056046859)scale(1.00000000712806,1.00000000712806)" style="font-size: 10px; font-family: Impact; fill: rgb(165, 81, 148);">learningbased</text><text text-anchor="middle" transform="translate(192,186)rotate(-26.000000034001005)skewX(3.1805546498063074e-15)scale(1.0000000099533612,1.0000000099533612)" style="font-size: 10px; font-family: Impact; fill: rgb(206, 109, 189);">computingenabled</text><text text-anchor="middle" transform="translate(160,-195)rotate(8.00000038608561)scale(0.9999999836615361,0.9999999836615361)" style="font-size: 10px; font-family: Impact; fill: rgb(222, 158, 214);">connected</text><text text-anchor="middle" transform="translate(68,-5)rotate(-26.000000034001005)skewX(3.1805546498063074e-15)scale(1.0000000099533612,1.0000000099533612)" style="font-size: 10px; font-family: Impact; fill: rgb(57, 59, 121);">car</text><text text-anchor="middle" transform="translate(-97,-245)rotate(-43.00000056046859)skewX(0)scale(1.00000000712806,1.00000000712806)" style="font-size: 10px; font-family: Impact; fill: rgb(82, 84, 163);">InternetofBehavior</text><text text-anchor="middle" transform="translate(-18,-137)rotate(-43.00000056046859)scale(1.00000000712806,1.00000000712806)" style="font-size: 10px; font-family: Impact; fill: rgb(107, 110, 207);">IoB</text><text text-anchor="middle" transform="translate(-269,3)rotate(-59.99999955470795)scale(0.9999999865388264,0.9999999865388264)" style="font-size: 10px; font-family: Impact; fill: rgb(156, 158, 222);">key</text><text text-anchor="middle" transform="translate(280,134)rotate(8.00000038608561)skewX(0)scale(0.9999999836615361,0.9999999836615361)" style="font-size: 10px; font-family: Impact; fill: rgb(99, 121, 57);">distribution</text><text text-anchor="middle" transform="translate(-37,-116)rotate(-26.000000034001005)skewX(3.1805546498063074e-15)scale(1.0000000099533612,1.0000000099533612)" style="font-size: 10px; font-family: Impact; fill: rgb(140, 162, 82);">QKD</text></g></svg>